<svg width="9" height="16" viewBox="0 0 9 16" fill="none" xmlns="http://www.w3.org/2000/svg">
<path d="M1.0598 0.185029L8.02847 7.3339C8.15086 7.45947 8.21936 7.62788 8.21936 7.80323C8.21936 7.97858 8.15086 8.14699 8.02847 8.27256L1.0598 15.4241C1.00278 15.4827 0.934617 15.5292 0.859321 15.561C0.784025 15.5928 0.703126 15.6091 0.621398 15.6091C0.53967 15.6091 0.45877 15.5928 0.383474 15.561C0.308178 15.5292 0.240012 15.4827 0.182998 15.4241C0.0657028 15.304 3.6027e-05 15.1428 3.6027e-05 14.975C3.6027e-05 14.8071 0.0657028 14.6459 0.182998 14.5258L6.73613 7.80323L0.182998 1.082C0.0661052 0.961975 0.00069266 0.801055 0.00069266 0.633514C0.00069266 0.465974 0.0661052 0.305054 0.182998 0.185029C0.240012 0.126473 0.308178 0.079931 0.383474 0.0481519C0.45877 0.0163728 0.53967 0 0.621398 0C0.703126 0 0.784025 0.0163728 0.859321 0.0481519C0.934617 0.079931 1.00278 0.126473 1.0598 0.185029Z" fill="black"/>
</svg>
