<svg width="23" height="23" viewBox="0 0 23 23" fill="none" xmlns="http://www.w3.org/2000/svg">
<path d="M11.168 5.43922C7.99618 5.43922 5.43633 7.99912 5.43633 11.1711C5.43633 14.343 7.99618 16.9029 11.168 16.9029C14.3399 16.9029 16.8998 14.343 16.8998 11.1711C16.8998 7.99912 14.3399 5.43922 11.168 5.43922ZM11.168 14.8963C9.11681 14.8963 7.44285 13.2223 7.44285 11.1711C7.44285 9.11978 9.11681 7.44578 11.168 7.44578C13.2193 7.44578 14.8933 9.11978 14.8933 11.1711C14.8933 13.2223 13.2193 14.8963 11.168 14.8963ZM17.1345 3.86863C16.394 3.86863 15.7959 4.46668 15.7959 5.20727C15.7959 5.94785 16.394 6.5459 17.1345 6.5459C17.8751 6.5459 18.4731 5.95064 18.4731 5.20727C18.4734 5.03141 18.4389 4.85724 18.3717 4.69473C18.3045 4.53222 18.2059 4.38456 18.0816 4.26021C17.9572 4.13587 17.8096 4.03727 17.647 3.97008C17.4845 3.90288 17.3104 3.86841 17.1345 3.86863V3.86863ZM22.3409 11.1711C22.3409 9.62841 22.3548 8.09973 22.2682 6.55988C22.1816 4.7713 21.7736 3.18394 20.4657 1.87604C19.155 0.565351 17.5705 0.160126 15.7819 0.0734921C14.2393 -0.013142 12.7107 0.000831253 11.1708 0.000831253C9.62822 0.000831253 8.09958 -0.013142 6.55976 0.0734921C4.77121 0.160126 3.18388 0.568145 1.87601 1.87604C0.56534 3.18673 0.160123 4.7713 0.0734908 6.55988C-0.0131418 8.10253 0.000831237 9.6312 0.000831237 11.1711C0.000831237 12.7109 -0.0131418 14.2424 0.0734908 15.7822C0.160123 17.5708 0.568135 19.1582 1.87601 20.4661C3.18667 21.7768 4.77121 22.182 6.55976 22.2686C8.10237 22.3552 9.63102 22.3413 11.1708 22.3413C12.7135 22.3413 14.2421 22.3552 15.7819 22.2686C17.5705 22.182 19.1578 21.774 20.4657 20.4661C21.7764 19.1554 22.1816 17.5708 22.2682 15.7822C22.3576 14.2424 22.3409 12.7137 22.3409 11.1711V11.1711ZM19.8816 17.7608C19.6776 18.2695 19.4317 18.6495 19.0376 19.0408C18.6436 19.4348 18.2663 19.6808 17.7577 19.8848C16.2878 20.4689 12.7973 20.3375 11.168 20.3375C9.5388 20.3375 6.04555 20.4689 4.57559 19.8876C4.06697 19.6836 3.68691 19.4376 3.29566 19.0436C2.90163 18.6495 2.6557 18.2723 2.4517 17.7636C1.87042 16.2909 2.00176 12.8003 2.00176 11.1711C2.00176 9.54177 1.87042 6.04846 2.4517 4.57847C2.6557 4.06984 2.90163 3.68977 3.29566 3.29852C3.6897 2.90727 4.06697 2.65854 4.57559 2.45454C6.04555 1.87325 9.5388 2.0046 11.168 2.0046C12.7973 2.0046 16.2906 1.87325 17.7605 2.45454C18.2691 2.65854 18.6492 2.90447 19.0404 3.29852C19.4345 3.69257 19.6804 4.06984 19.8844 4.57847C20.4657 6.04846 20.3343 9.54177 20.3343 11.1711C20.3343 12.8003 20.4657 16.2909 19.8816 17.7608Z" fill="url(#paint0_linear_7_14)"/>
<defs>
<linearGradient id="paint0_linear_7_14" x1="2.14824" y1="1.39638" x2="20.4087" y2="22.3418" gradientUnits="userSpaceOnUse">
<stop stop-color="#605FCC"/>
<stop offset="0.338542" stop-color="#BE39A6"/>
<stop offset="0.671875" stop-color="#EE534D"/>
<stop offset="1" stop-color="#FEC163"/>
</linearGradient>
</defs>
</svg>
