<svg width="19" height="15" viewBox="0 0 19 15" fill="none" xmlns="http://www.w3.org/2000/svg">
<path d="M2.20814 3.03853C2.21955 2.9252 2.20427 2.81078 2.16354 2.70441C2.1228 2.59805 2.05774 2.5027 1.97355 2.42598L0.234592 0.315582V0H5.63207L9.80446 9.22077L13.4723 0H18.6184V0.315582L17.1317 1.75013C17.0687 1.79877 17.0201 1.8636 16.9911 1.93771C16.9621 2.01182 16.9537 2.09242 16.967 2.17091V12.722C16.9537 12.8005 16.9621 12.8811 16.9911 12.9552C17.0201 13.0293 17.0687 13.0941 17.1317 13.1427L18.584 14.5782V14.8947H11.2818V14.5792L12.7862 13.1083C12.9342 12.9594 12.9342 12.9156 12.9342 12.6885V4.15936L8.75252 14.8594H8.18838L3.31966 4.15936V11.3312C3.27963 11.6319 3.37924 11.9363 3.58963 12.1541L5.5455 14.5447V14.8594H0V14.5447L1.95493 12.1541C2.05837 12.0462 2.13514 11.9155 2.1791 11.7727C2.22307 11.6298 2.23301 11.4786 2.20814 11.3312V3.03853Z" fill="black"/>
</svg>
