<svg width="19" height="20" viewBox="0 0 19 20" fill="none" xmlns="http://www.w3.org/2000/svg">
<path fill-rule="evenodd" clip-rule="evenodd" d="M6.91581 7.34941H10.3733V9.07161C10.8713 8.08111 12.1485 7.19115 14.0671 7.19115C17.7452 7.19115 18.6184 9.16284 18.6184 12.7804V19.4802H14.8947V13.6043C14.8947 11.5441 14.3967 10.3823 13.1288 10.3823C11.3703 10.3823 10.6395 11.6344 10.6395 13.6033V19.4802H6.91581V7.34941V7.34941ZM0.530625 19.322H4.25431V7.19115H0.530625V19.322V19.322ZM4.78773 3.23567C4.78787 3.54778 4.72597 3.85681 4.60563 4.14479C4.48529 4.43277 4.30891 4.69397 4.08674 4.91319C3.63655 5.36061 3.02718 5.61105 2.39247 5.60951C1.75887 5.60909 1.15091 5.35928 0.700053 4.91412C0.47869 4.69415 0.302909 4.43267 0.18278 4.14465C0.0626524 3.85663 0.000539126 3.54773 0 3.23567C0 2.60543 0.251349 2.00219 0.700984 1.55721C1.15144 1.11145 1.75966 0.861538 2.3934 0.861817C3.02829 0.861817 3.63711 1.11223 4.08674 1.55721C4.53545 2.00219 4.78773 2.60543 4.78773 3.23567Z" fill="#0072B1"/>
</svg>
