<svg width="23" height="18" viewBox="0 0 23 18" fill="none" xmlns="http://www.w3.org/2000/svg">
<path d="M22.1489 2.1308C21.3196 2.49822 20.4398 2.7394 19.539 2.84631C20.4773 2.28394 21.1978 1.39339 21.537 0.332321C20.645 0.861633 19.6691 1.23457 18.6515 1.43501C17.8225 0.551907 16.6416 0 15.3346 0C12.825 0 10.7903 2.03459 10.7903 4.544C10.7903 4.9002 10.8306 5.24696 10.908 5.57963C7.13144 5.39007 3.78314 3.58104 1.54186 0.831797C1.15079 1.50293 0.926709 2.28359 0.926709 3.11625C0.926709 4.69281 1.729 6.08361 2.94823 6.89853C2.22662 6.87593 1.52088 6.68103 0.889938 6.3301C0.889678 6.34913 0.889678 6.36817 0.889678 6.38729C0.889678 8.58895 2.45602 10.4256 4.53474 10.843C3.86559 11.025 3.16369 11.0517 2.48267 10.9209C3.06088 12.7262 4.7391 14.0399 6.72748 14.0767C5.1723 15.2954 3.2129 16.0219 1.084 16.0219C0.717159 16.0219 0.355508 16.0004 0 15.9584C2.01097 17.2477 4.39951 18 6.96567 18C15.324 18 19.8946 11.0758 19.8946 5.07098C19.8946 4.87389 19.8903 4.67793 19.8815 4.48309C20.7711 3.83997 21.5389 3.04342 22.1489 2.1308" fill="#55ACEE"/>
</svg>
