<svg width="23" height="16" viewBox="0 0 23 16" fill="none" xmlns="http://www.w3.org/2000/svg">
<path fill-rule="evenodd" clip-rule="evenodd" d="M21.0013 1.19101C21.3462 1.53593 21.5948 1.96518 21.7222 2.43603V2.43611C22.4558 5.3892 22.2864 10.0532 21.7364 13.1203C21.609 13.5911 21.3605 14.0204 21.0155 14.3653C20.6706 14.7102 20.2414 14.9588 19.7705 15.0862C18.0468 15.5563 11.1093 15.5563 11.1093 15.5563C11.1093 15.5563 4.17159 15.5563 2.44785 15.0862C1.97701 14.9588 1.54776 14.7102 1.20286 14.3653C0.857955 14.0204 0.609425 13.5911 0.482016 13.1203C-0.255951 10.18 -0.053693 5.5131 0.467699 2.45034C0.595095 1.97948 0.843619 1.55021 1.18852 1.20528C1.53343 0.860341 1.96268 0.611779 2.43353 0.484342C4.15727 0.01423 11.0951 0 11.0951 0C11.0951 0 18.0326 0 19.7564 0.470112C20.2272 0.597542 20.6564 0.846091 21.0013 1.19101ZM14.6423 7.7781L8.8871 11.1116V4.44462L14.6423 7.7781Z" fill="#FF0000"/>
</svg>
